<svg xmlns="http://www.w3.org/2000/svg" viewBox="0 0 900 600">
  <path fill="#fff" d="M0 0h900v600H0z"/>
  <circle cx="450" cy="300" r="150" fill="#fff"/>
  <path d="M450 150c-82.8 0-150 67.2-150 150s67.2 150 150 150 150-67.2 150-150-67.2-150-150-150zm0 75c41.4 0 75 33.6 75 75s-33.6 75-75 75-75-33.6-75-75 33.6-75 75-75z" fill="#c60c30"/>
  <path d="M450 150c41.4 0 75 33.6 75 75s-33.6 75-75 75-75-33.6-75-75 33.6-75 75-75z" fill="#003478"/>
  <path d="M150 150h150v150H150z" fill="#c60c30"/>
  <path d="M600 150h150v150H600z" fill="#003478"/>
  <path d="M150 300h150v150H150z" fill="#003478"/>
  <path d="M600 300h150v150H600z" fill="#c60c30"/>
</svg> 